<?xml version="1.0" encoding="UTF-8" standalone="no"?><!DOCTYPE svg PUBLIC "-//W3C//DTD SVG 1.1//EN" "http://www.w3.org/Graphics/SVG/1.1/DTD/svg11.dtd"><svg width="100%" height="100%" viewBox="0 0 413 480" version="1.1" xmlns="http://www.w3.org/2000/svg" xmlns:xlink="http://www.w3.org/1999/xlink" xml:space="preserve" style="fill-rule:evenodd;clip-rule:evenodd;stroke-linejoin:round;stroke-miterlimit:1.41421;"><rect id="tf.-export" x="0" y="0" width="412.652" height="480" style="fill:none;"/><clipPath id="_clip1"><rect x="0" y="0" width="412.652" height="480"/></clipPath><g clip-path="url(#_clip1)"><g><rect x="339.244" y="260.501" width="37.736" height="114.022" style="fill:#fff;"/><path d="M377.726,183.076l21.796,-25.862c-11.711,-12.85 -30.742,-21.146 -48.147,-21.146c-35.784,0 -61.809,24.887 -61.809,59.045c0,34.646 25.374,60.02 60.345,60.02c17.567,0 36.924,-9.109 49.611,-23.097l-21.796,-23.26c-7.482,8.133 -17.73,13.338 -25.863,13.338c-13.663,0 -23.585,-11.549 -23.585,-27.489c0,-15.778 9.922,-27.164 23.585,-27.164c8.784,0 19.031,6.181 25.863,15.615Z" style="fill:#fff;"/><rect x="241.325" y="138.508" width="37.736" height="114.022" style="fill:#fff;"/><path d="M184.069,16.516c30.905,0 48.635,14.802 48.635,40.827c0,16.591 -6.344,28.953 -18.055,36.109l22.446,37.086l-42.616,0l-13.663,-29.603l-14.151,0l0,29.603l-37.736,0l0,-114.022l55.14,0Zm0,55.791c8.133,0 12.85,-5.043 12.85,-13.826c0,-8.408 -4.661,-13.279 -12.85,-13.338l-17.404,0l0,27.164l17.404,0Z" style="fill:#fff;"/><path d="M348.773,130.538l0,-66.364c0,-30.254 -21.471,-50.098 -54.653,-50.098c-32.694,0 -53.839,19.844 -53.839,50.098l0,66.364l37.736,0l0,-24.236l33.02,0l0,24.236l37.736,0Zm-37.736,-51.237l0,-15.127c0,-11.223 -6.669,-18.705 -16.591,-18.705c-9.923,0 -16.429,7.482 -16.429,18.705l0,15.127l33.02,0Z" style="fill:#fff;"/><path d="M174.368,395.744l-32.531,0l0,84.256l-37.737,0l0,-84.256l-33.995,0l0,84.256l-37.736,0l0,-84.256l-32.369,0l0,-29.766l174.368,0l0,29.766Z" style="fill:#fff;"/><path d="M281.396,394.605l-58.719,0l0,13.989l53.351,0l0,28.627l-53.351,0l0,14.151l60.183,0l0,28.628l-97.919,0l0,-114.022l96.455,0l0,28.627Z" style="fill:#fff;"/><path d="M314.28,365.978l24.008,28.627l-6.631,0l0,27.164l17.404,0c3.892,0 7.002,-1.155 9.182,-3.37l23.573,28.109l20.271,33.492l-42.616,0l-13.663,-29.604l-14.151,0l0,29.604l-37.736,0l0,-114.022l20.359,0Z" style="fill:#fff;"/><path d="M96.103,283.511l13.663,-28.791c-12.85,-8.132 -31.555,-13.663 -49.61,-13.663c-29.604,0 -48.797,14.477 -48.797,37.574c0,40.827 59.044,30.742 59.044,46.194c0,4.392 -3.578,6.344 -9.109,6.344c-11.548,0 -31.718,-7.97 -43.429,-18.055l-13.988,28.465c15.127,11.711 37.248,18.543 57.092,18.543c25.7,0 47.984,-11.549 47.984,-37.248c0,-41.966 -59.044,-32.694 -59.044,-47.821c0,-3.579 2.765,-5.043 6.994,-5.043c9.922,0 27.651,6.832 39.2,13.501Z" style="fill:#fff;"/><path d="M226.974,261.872l37.736,44.997l0,19.746l16.559,0l26.327,31.392l-80.622,0l0,-96.135Z" style="fill:#fff;"/><path d="M104.141,150.62l-54.002,0l0,19.682l50.586,0l0,28.627l-50.586,0l0,37.086l-37.736,0l0,-114.022l91.738,0l0,28.627Z" style="fill:#fff;"/><path d="M114.836,128.156l59.352,70.773l-21.616,0l0,37.086l-37.736,0l0,-107.859Z" style="fill:#fff;"/><path d="M34.063,31.842l37.736,44.997l0,37.183l-37.736,0l0,-82.18Z" style="fill:#fff;"/><path d="M32.322,29.766l-30.628,0l0,-29.766l5.665,0l24.963,29.766Z" style="fill:#fff;"/><path d="M153.128,358.007l-37.737,0l0,-114.022l53.514,0c29.604,0 46.683,14.802 46.683,40.827c0,27.6 -17.015,43.532 -46.683,43.592l-15.777,0l0,29.603Zm13.826,-85.394l-13.826,0l0,27.163l13.826,0c8.133,0 12.849,-5.042 12.849,-13.825c0,-8.408 -4.661,-13.28 -12.849,-13.338Z" style="fill:#fff;"/><path d="M352.359,382.431l54.315,64.855c-2.976,4.943 -7.027,8.996 -12.077,12.082l-21.398,-24.515c2.386,-2.313 3.669,-5.876 3.669,-10.456c0,-8.408 -4.661,-13.28 -12.85,-13.338l-10.773,0l-24.008,-28.628l23.122,0Zm-37.208,-44.429l7.847,9.37l0,22.023l-4.61,0l-26.327,-31.393l23.09,0Zm-66.059,-78.879l29.835,35.626l0,27.258l-37.736,-44.997l0,-17.887l7.901,0Zm-101.523,-121.224l23.975,28.627l-4.082,0l0,19.682l20.565,0l23.975,28.627l-22.924,0l-59.352,-70.773l0,-6.163l17.843,0Zm-101.651,-121.379l41.03,48.993l0,27.846l-37.736,-44.997l-1.741,-2.076l-24.963,-29.766l23.41,0Z" style="fill:#ffc700;"/><path d="M352.359,382.431l11.659,0c30.905,0 48.634,14.802 48.634,40.827c0,9.438 -2.052,17.507 -5.978,24.028l-54.315,-64.855Z" style="fill:#fff;"/><path d="M322.998,347.372l-7.847,-9.37l7.847,0l0,9.37Z" style="fill:#fff;"/><path d="M278.927,294.749l-29.835,-35.626l29.835,0l0,35.626Z" style="fill:#fff;"/><path d="M218.048,186.208l0,28.627l-6.046,0l-23.975,-28.627l30.021,0Z" style="fill:#fff;"/><path d="M221.464,166.526l-49.92,0l-23.975,-28.627l73.895,0l0,28.627Z" style="fill:#fff;"/><path d="M119.48,46.286l-32.532,0l0,19.227l-41.03,-48.993l73.562,0l0,29.766Z" style="fill:#fff;"/><path d="M338.288,394.605l-6.631,0l0,27.164l17.404,0c3.892,0 7.002,-1.155 9.182,-3.37l23.573,28.109l20.271,33.492l-24.101,0l-84.065,-100.38l0,-13.642l20.359,0l24.008,28.627Z" style="fill:#dadada;"/><path d="M226.974,299.681l0,-37.809l37.736,44.997l0,19.746l16.559,0l26.327,31.392l-31.775,0l-48.847,-58.326Z" style="fill:#dadada;"/><path d="M181.123,244.932c22.034,3.643 34.465,17.677 34.465,39.88c0,0.423 -0.004,0.842 -0.012,1.259l-34.453,-41.139Z" style="fill:#dadada;"/><path d="M174.188,198.929l-21.616,0l0,11.912l-37.736,-45.06l0,-37.625l59.352,70.773Z" style="fill:#dadada;"/><path d="M34.063,69.333l0,-37.491l37.736,44.997l0,37.183l-0.31,0l-37.426,-44.689Z" style="fill:#dadada;"/></g></g></svg>